<svg id="bf12720d-f749-46d4-9e4c-07c31ff66e19" data-name="Calque 2" xmlns="http://www.w3.org/2000/svg" width="170.87mm" height="44.38mm" viewBox="0 0 484.35 125.8"><path d="M98.24,97.66v.56a35.24,35.24,0,0,1-.51,5.09,42.17,42.17,0,0,1-1.27,5.28,49.15,49.15,0,0,1-2,5.21,43.45,43.45,0,0,1-2.56,4.94,42.11,42.11,0,0,1-3.06,4.42,27.52,27.52,0,0,1-3.46,3.65l-4.36-2.52a29.91,29.91,0,0,0,1.86-3.76c.55-1.36,1.06-2.78,1.51-4.27s.83-3,1.15-4.57.59-3.11.81-4.65.37-3.07.48-4.56.16-2.92.16-4.26c0-1.06,0-2.25,0-3.59a40.91,40.91,0,0,0-.24-4.09,28.46,28.46,0,0,0-.71-4.06A12.58,12.58,0,0,0,84.58,83a7.88,7.88,0,0,0-2.52-2.49,7.29,7.29,0,0,0-3.83-.93,8,8,0,0,0-3.47.68,7.46,7.46,0,0,0-2.46,1.85,9.11,9.11,0,0,0-1.61,2.68A19.53,19.53,0,0,0,69.75,88a25.7,25.7,0,0,0-.44,3.4c-.07,1.14-.1,2.22-.1,3.23v8.18H81.84v4.83H69.21v10.26H57.58V96.4A24.52,24.52,0,0,1,59,87.85,20.54,20.54,0,0,1,63.19,81a18.93,18.93,0,0,1,6.44-4.57A20.55,20.55,0,0,1,78,74.75a18.94,18.94,0,0,1,5.87.89,19.41,19.41,0,0,1,5,2.46,20.33,20.33,0,0,1,4,3.73,21.75,21.75,0,0,1,2.95,4.7,24.94,24.94,0,0,1,1.81,5.39A24.62,24.62,0,0,1,98.24,97.66Z" transform="translate(-57.36 -20.84)" style="fill:none"/><path d="M136.09,117.85H105.8V75.66h11.63v36.82h18.66Z" transform="translate(-57.36 -20.84)" style="fill:#222524"/><path d="M153.2,117.85H141.57V75.66H153.2V94.09h15.41V75.66h11.64v42.19H168.61V99.45H153.2Z" transform="translate(-57.36 -20.84)" style="fill:#222524"/><path d="M222.61,117.85h-9.9v-4a11.06,11.06,0,0,1-4.24,3.56,12.68,12.68,0,0,1-5.43,1.16,16.63,16.63,0,0,1-6.92-1.38,15,15,0,0,1-5.15-3.76,16.38,16.38,0,0,1-3.22-5.61,21.91,21.91,0,0,1,0-13.83A16.38,16.38,0,0,1,191,88.33a15,15,0,0,1,5.15-3.77A16.79,16.79,0,0,1,203,83.19a11.79,11.79,0,0,1,3.73.58A11.83,11.83,0,0,1,212.63,88a12.36,12.36,0,0,1,1.78,3.35L218.8,84h3.81Zm-10-17c0-.88-.05-1.8-.13-2.78a21.87,21.87,0,0,0-.46-2.9,14.63,14.63,0,0,0-.89-2.74,8.58,8.58,0,0,0-1.47-2.31,6.34,6.34,0,0,0-2.15-1.6,6.9,6.9,0,0,0-2.93-.59,6.29,6.29,0,0,0-5,2.22,8.83,8.83,0,0,0-1.45,2.32,15.08,15.08,0,0,0-.89,2.76,22.11,22.11,0,0,0-.46,2.88c-.09,1-.13,1.88-.13,2.74s0,1.78.13,2.76a22.14,22.14,0,0,0,.46,2.9,15.23,15.23,0,0,0,.89,2.75,8.73,8.73,0,0,0,1.45,2.33,6.7,6.7,0,0,0,2.11,1.61,6.56,6.56,0,0,0,2.9.6,5.68,5.68,0,0,0,2.71-.63,7.13,7.13,0,0,0,2.08-1.68,10.28,10.28,0,0,0,1.51-2.4,18.17,18.17,0,0,0,1-2.79,22.35,22.35,0,0,0,.55-2.85A20.93,20.93,0,0,0,212.65,100.85Z" transform="translate(-57.36 -20.84)" style="fill:#222524"/><path d="M315.74,117.85H280.38v-5.39h0l22.06-31.41h-22V75.66h35.36v5.39l-22.06,31.41h22.06Z" transform="translate(-57.36 -20.84)" style="fill:#222524"/><path d="M379,106.39a9.38,9.38,0,0,1-.59,3.34,10.28,10.28,0,0,1-1.61,2.83,12.89,12.89,0,0,1-2.39,2.27,15.11,15.11,0,0,1-2.93,1.67,16.46,16.46,0,0,1-3.24,1,16.84,16.84,0,0,1-3.28.34H340.15V75.66h22.67a23.16,23.16,0,0,1,3.14.22,19.52,19.52,0,0,1,3.21.69,15.58,15.58,0,0,1,3,1.23,9.65,9.65,0,0,1,2.49,1.86,8.28,8.28,0,0,1,1.7,2.53,8.1,8.1,0,0,1,.63,3.28,7.19,7.19,0,0,1-.7,3.2,9,9,0,0,1-1.89,2.56,13.52,13.52,0,0,1-2.72,2,23.93,23.93,0,0,1-3.24,1.51,22.26,22.26,0,0,1,4.06,1.55,13.72,13.72,0,0,1,3.37,2.38,10.55,10.55,0,0,1,2.3,3.32A10.91,10.91,0,0,1,379,106.39ZM365.17,86.5q0-3.57-1.89-5.22a8,8,0,0,0-5.38-1.64h-6.12V93.32h5.13a12.07,12.07,0,0,0,3.07-.39,8,8,0,0,0,2.65-1.23,6.24,6.24,0,0,0,1.85-2.13A6.41,6.41,0,0,0,365.17,86.5Zm2.05,19.16a11.69,11.69,0,0,0-.44-3.24,7.2,7.2,0,0,0-1.35-2.61,6.33,6.33,0,0,0-2.27-1.73,7.76,7.76,0,0,0-3.21-.62h-8.17v16.28h7.15a9.18,9.18,0,0,0,3.31-.58,8,8,0,0,0,2.63-1.64A7.3,7.3,0,0,0,366.6,109,8.63,8.63,0,0,0,367.22,105.66Z" transform="translate(-57.36 -20.84)" style="fill:none"/><path d="M413.71,87l-5.56,9.22c-.24-.78-.54-1.66-.91-2.63a14.35,14.35,0,0,0-1.38-2.74,8.39,8.39,0,0,0-2-2.14,4.22,4.22,0,0,0-2.64-.86,4.08,4.08,0,0,0-2.39.7,6.26,6.26,0,0,0-1.71,1.83A11,11,0,0,0,396,92.93a20.69,20.69,0,0,0-.7,2.87,26.29,26.29,0,0,0-.34,2.78c-.06.89-.09,1.66-.09,2.3v17h-9.93V84h3.81l4,7.88a22.76,22.76,0,0,1,1.88-3.5,12.7,12.7,0,0,1,2.43-2.76,10.51,10.51,0,0,1,3.12-1.8,11.31,11.31,0,0,1,3.94-.64,18.71,18.71,0,0,1,2.55.19,14.27,14.27,0,0,1,2.75.64,11.44,11.44,0,0,1,2.49,1.19A5.47,5.47,0,0,1,413.71,87Z" transform="translate(-57.36 -20.84)" style="fill:#222524"/><path d="M449.51,95.11a9.62,9.62,0,0,1-.67,3.71,9.41,9.41,0,0,1-1.83,2.85,11,11,0,0,1-2.68,2.08,17.8,17.8,0,0,1-3.25,1.4,20.33,20.33,0,0,1-3.56.77,27.53,27.53,0,0,1-3.56.24,31.23,31.23,0,0,1-4.34-.31,25.81,25.81,0,0,1-4.22-1,17.61,17.61,0,0,0,1,3.67,10.21,10.21,0,0,0,1.87,3,8.38,8.38,0,0,0,2.89,2.07,10,10,0,0,0,4.06.76,9.38,9.38,0,0,0,5.53-1.79,10.15,10.15,0,0,0,2.07-2A10.67,10.67,0,0,0,444.3,108l4.28,1.58a12.18,12.18,0,0,1-2.66,4,15.33,15.33,0,0,1-3.8,2.79A18.44,18.44,0,0,1,437.6,118a22,22,0,0,1-4.73.53,19.38,19.38,0,0,1-7.15-1.3,16.48,16.48,0,0,1-9.37-9.25,19.45,19.45,0,0,1,0-14.24,16.5,16.5,0,0,1,9.37-9.24,19.18,19.18,0,0,1,7.15-1.3,29.85,29.85,0,0,1,3.84.26,23.91,23.91,0,0,1,3.81.84A17.94,17.94,0,0,1,444,85.77,10.88,10.88,0,0,1,446.86,88a10.21,10.21,0,0,1,1.93,3.09A10.5,10.5,0,0,1,449.51,95.11Zm-24.4,6.68c1.21.27,2.42.49,3.63.65a29.72,29.72,0,0,0,3.66.23,16.22,16.22,0,0,0,3.59-.37,7.62,7.62,0,0,0,2.87-1.23,6,6,0,0,0,1.92-2.3,8,8,0,0,0,.71-3.57A10.17,10.17,0,0,0,441,92a6.89,6.89,0,0,0-1.4-2.47A6.29,6.29,0,0,0,437.35,88a8,8,0,0,0-3.13-.57,7.09,7.09,0,0,0-3,.61,7.77,7.77,0,0,0-2.35,1.66,10.43,10.43,0,0,0-1.73,2.41A18.42,18.42,0,0,0,426,95a19,19,0,0,0-.68,3,22.86,22.86,0,0,0-.2,2.87v.47A3.71,3.71,0,0,0,425.11,101.79Z" transform="translate(-57.36 -20.84)" style="fill:#222524"/><path d="M466.09,75.83a5.4,5.4,0,0,1-5.42,5.42,5.24,5.24,0,0,1-2.09-.42,5.46,5.46,0,0,1-3.3-5,5.38,5.38,0,0,1,1.59-3.8,5.34,5.34,0,0,1,1.71-1.16,5.08,5.08,0,0,1,2.09-.43,5.17,5.17,0,0,1,2.11.43A5.32,5.32,0,0,1,464.51,72a5.31,5.31,0,0,1,1.58,3.8Zm-.43,42h-9.94V84h9.94Z" transform="translate(-57.36 -20.84)" style="fill:#222524"/><path d="M500.75,117.85H472.1v-3.93l17.73-26H472.1V84h28.65v3.92l-17.72,26h17.72Z" transform="translate(-57.36 -20.84)" style="fill:#222524"/><path d="M541.71,98.45a33,33,0,0,1-.83,7.15,44.45,44.45,0,0,1-2.33,7.29,40.4,40.4,0,0,1-3.58,6.73,29,29,0,0,1-4.57,5.43l-3.72-2a27.22,27.22,0,0,0,1.49-3.28c.47-1.21.9-2.5,1.28-3.85s.72-2.76,1-4.21.56-2.87.77-4.29.36-2.79.47-4.13.16-2.58.16-3.73c0-.77,0-1.58-.09-2.45a18,18,0,0,0-.37-2.61,15.7,15.7,0,0,0-.74-2.5,7.36,7.36,0,0,0-1.25-2.11,5.91,5.91,0,0,0-1.88-1.47,5.65,5.65,0,0,0-2.59-.55,5.26,5.26,0,0,0-2.61.65,7.53,7.53,0,0,0-2,1.73,11.49,11.49,0,0,0-1.51,2.45,18,18,0,0,0-1,2.83,21.56,21.56,0,0,0-.75,5.37v17h-9.93V71.56H517V89a13.28,13.28,0,0,1,4.68-4.29,12.54,12.54,0,0,1,6.13-1.51A15.21,15.21,0,0,1,534,84.33a11.79,11.79,0,0,1,4.33,3.18,13.51,13.51,0,0,1,2.58,4.83A20.84,20.84,0,0,1,541.71,98.45Z" transform="translate(-57.36 -20.84)" style="fill:#222524"/><path d="M241,114.65c-6.87,0-8.39.21-17.2,7s-15.08,3.64-15.08,3.64a12.89,12.89,0,0,0,11.11,3.32c6.74-1.28,8.15-3.09,12.95-5.13,4-1.68,7.87-2.55,10.89-1.77,2.71.7,5.56,4.21,3.29,6.82-2.68,3.08-6.68-.72-6.68-.72.91,4.33,2.53,5.29,4.49,6.28,3.27,1.66,8,1.43,13.46-4.46s6.55-7.11,9.72-7.73c4.09-.79,8.88,1.7,8,5.5-1.11,4.72-6.13,2.17-6.13,2.17a5.46,5.46,0,0,0,1.73,3.91,4.86,4.86,0,0,0,4.16,1.21c2.67-.33,3.65-1.64,7-2.48,3.66-.91,6.78-.46,10.7-1.39a20.58,20.58,0,0,0,7.36-3.81c-2.21.41-12.6,2.91-19.94-4.43-4.74-5.37-7.46-7.75-12.74-7.95l-4.27-31.77h1.67a2.41,2.41,0,0,0,2.41-2.41V76.54a2.41,2.41,0,0,0-2.41-2.41h-2.84l-1.1-8.2c0-2.12-2.29-3.9-5.37-4.41V59c0-.62-.82-1.13-1.84-1.13s-1.83.51-1.83,1.13v2.55c-3,.52-5.28,2.29-5.28,4.39l-1.05,8.2h-3a2.41,2.41,0,0,0-2.41,2.41v3.93a2.41,2.41,0,0,0,2.41,2.41H245L241,114.65m8.36-47.77a1,1,0,0,1,.95-.95h2.07a.14.14,0,0,1,.14.14V74a.13.13,0,0,1-.14.13h-2.89a.13.13,0,0,1-.13-.13Z" transform="translate(-57.36 -20.84)" style="fill:#222524"/><path d="M217.09,46.35A12.35,12.35,0,0,0,228.85,49c8.69-2.32,12.18-1.82,14.62,1.41a7.87,7.87,0,0,1-1.19,10.41C238.12,64.71,222.17,62.77,217.09,46.35Z" transform="translate(-57.36 -20.84)" style="fill:#222524"/><path d="M253.09,20.84s4,3.27,3.07,8.12c-.8,4,.25,4.33,2.89,7a7.69,7.69,0,0,1,0,10.34c-3.15,3.21-9.73,1.71-11.75-.64-1.84-2.15-4.2-7.05.68-15.45C251.58,24.13,252.79,23.13,253.09,20.84Z" transform="translate(-57.36 -20.84)" style="fill:#222524"/><path d="M289.85,45s-7.77,5.75-17.58,4c-9-1.64-10.25,4.2-10.47,6-.16,1.35-1,7.5,7.36,8.92C277.13,65.27,286,55.6,289.85,45Z" transform="translate(-57.36 -20.84)" style="fill:#222524"/><path d="M57.36,116.88s1.41-3.74.12-23.37a15.19,15.19,0,0,1,0-2.43c.23-3.07,1.87-10.34,7.59-14.49,9.18-6.67,18-4.27,18-4.27A23.28,23.28,0,0,1,97,83a26,26,0,0,1,3.34,17A49.39,49.39,0,0,1,86.75,126.9L82,124a65.58,65.58,0,0,0,5.81-20.3c.59-6.35,1.39-15.55-1.67-21.65-3.45-6.89-10.44-5.11-13.7-1.62-2.64,2.83-3.75,4.71-4.92,10.1s.68,10.27,3.46,11.13,6-1.28,8.54-1.36,5,1.46,4.27,4.4c-.78,3.17-3.56,1.54-4.51,1.17-1.36-.52-3.64-1.23-6.56,1.67a18.42,18.42,0,0,0-3.69,5,7.67,7.67,0,0,1-1.3,2,9,9,0,0,1-4.73,2.7C58.68,118.13,57.36,116.88,57.36,116.88Z" transform="translate(-57.36 -20.84)" style="fill:#222524"/><path d="M344.27,67.6A48.48,48.48,0,0,0,335,88.28c-2.14,12.14,3,21.44,8,25.3s14.51,7.34,25.3.83c8.67-5.24,11.5-13.2,10.41-19.1-.71-3.83-3.79-7.1-9.93-9.44,0,0,8.62-2.55,8.48-10.27s-10.41-9.38-13.44-9.31-10.69.76-16.68-2.82c0,0-1.15,8.79,9.62,7.17,6-.9,7.71,3.48,7.9,5.24a9.55,9.55,0,0,1-.59,4.34,10.39,10.39,0,0,1-3.62,3.86c-1.3.78-2.82,1.94-7.25.21-2.44-1-3.86,3.58-1.44,5.37s7.23-.07,7.23-.07,5.38-3.31,7.31,3.24-2.14,16.35-6.41,18.93-11.65,1.89-13.24-8.31.69-23,3.18-30.81Z" transform="translate(-57.36 -20.84)" style="fill:#222524"/><path d="M346.4,144.24H336.31V130.18h3.87v12.28h6.22Z" transform="translate(-57.36 -20.84)" style="fill:#222524"/><path d="M373.46,138.58a5.82,5.82,0,0,1-.23,1.65,6.39,6.39,0,0,1-.65,1.43,5.85,5.85,0,0,1-1,1.17,6.31,6.31,0,0,1-1.29.89,6.62,6.62,0,0,1-1.49.55,6.88,6.88,0,0,1-1.64.2,7,7,0,0,1-3.12-.75,6.24,6.24,0,0,1-1.28-.89,5.54,5.54,0,0,1-1-1.17,5.77,5.77,0,0,1,0-6.16,5.54,5.54,0,0,1,1-1.17,6.24,6.24,0,0,1,1.28-.89,7,7,0,0,1,3.12-.75,6.88,6.88,0,0,1,1.64.2,6.62,6.62,0,0,1,1.49.55,6.31,6.31,0,0,1,1.29.89,5.85,5.85,0,0,1,1,1.17,6.39,6.39,0,0,1,.65,1.43A5.93,5.93,0,0,1,373.46,138.58Zm-3.36,0c0-.31,0-.64-.05-1a8.87,8.87,0,0,0-.18-1,5.52,5.52,0,0,0-.35-1,3.37,3.37,0,0,0-.54-.81,2.39,2.39,0,0,0-.77-.56,2.46,2.46,0,0,0-1-.21,2.26,2.26,0,0,0-1,.21,2.6,2.6,0,0,0-.77.58,3.18,3.18,0,0,0-.55.82,6.6,6.6,0,0,0-.35,1,6.13,6.13,0,0,0-.2,1,7.71,7.71,0,0,0,0,1.92,6.13,6.13,0,0,0,.2,1,6.21,6.21,0,0,0,.35,1,3.18,3.18,0,0,0,.55.82,2.6,2.6,0,0,0,.77.58,2.26,2.26,0,0,0,1,.21,2.44,2.44,0,0,0,1-.21,2.54,2.54,0,0,0,.77-.56,3.18,3.18,0,0,0,.54-.81,5.33,5.33,0,0,0,.35-1,7.31,7.31,0,0,0,.19-1C370.08,139.22,370.1,138.89,370.1,138.58Z" transform="translate(-57.36 -20.84)" style="fill:#222524"/><path d="M400,135.76l-1.43.56a3.09,3.09,0,0,0-1.14-1.65,3.21,3.21,0,0,0-1.92-.57,2.78,2.78,0,0,0-1.08.19,2.54,2.54,0,0,0-.83.52,3.29,3.29,0,0,0-.61.77,4.92,4.92,0,0,0-.4.94,5.71,5.71,0,0,0-.23,1,9.16,9.16,0,0,0-.06,1,9.76,9.76,0,0,0,.05,1.08,6.74,6.74,0,0,0,.2,1.05,4.62,4.62,0,0,0,.38.94,2.93,2.93,0,0,0,.59.76,2.87,2.87,0,0,0,.85.51,3.33,3.33,0,0,0,1.14.18,2.92,2.92,0,0,0,1-.16,3.15,3.15,0,0,0,.86-.43,3.75,3.75,0,0,0,.7-.68,3.34,3.34,0,0,0,.48-.87l1.43.53a4.33,4.33,0,0,1-.85,1.33,4.71,4.71,0,0,1-1.21.93,5.55,5.55,0,0,1-1.44.54,6.94,6.94,0,0,1-1.57.18,6.36,6.36,0,0,1-2.37-.44,5.5,5.5,0,0,1-1.89-1.22,5.59,5.59,0,0,1-1.25-1.86,6.29,6.29,0,0,1-.44-2.37,6.11,6.11,0,0,1,.44-2.38,5.46,5.46,0,0,1,3.12-3.08,6.43,6.43,0,0,1,2.39-.43,7.07,7.07,0,0,1,1.6.18,5.39,5.39,0,0,1,1.45.56,5,5,0,0,1,1.21.95A4.35,4.35,0,0,1,400,135.76Z" transform="translate(-57.36 -20.84)" style="fill:#222524"/><path d="M427.26,144.24H424V142.9a3.61,3.61,0,0,1-1.41,1.18,4.2,4.2,0,0,1-1.81.39,5.67,5.67,0,0,1-2.31-.46,5.18,5.18,0,0,1-1.72-1.26,5.64,5.64,0,0,1-1.07-1.87,6.89,6.89,0,0,1-.37-2.3,7,7,0,0,1,.37-2.31,5.85,5.85,0,0,1,1.07-1.87,5.15,5.15,0,0,1,1.72-1.25,5.51,5.51,0,0,1,2.31-.46,3.93,3.93,0,0,1,1.24.2,3.85,3.85,0,0,1,1.09.55,4.17,4.17,0,0,1,.87.86,4.27,4.27,0,0,1,.59,1.12L426,133h1.27Zm-3.32-5.66c0-.29,0-.6,0-.93a7.67,7.67,0,0,0-.15-1,6.6,6.6,0,0,0-.3-.92A3.06,3.06,0,0,0,423,135a2.24,2.24,0,0,0-.72-.53,2.28,2.28,0,0,0-1-.2,2.19,2.19,0,0,0-1,.2,2.39,2.39,0,0,0-.71.54,3,3,0,0,0-.48.78,4.85,4.85,0,0,0-.3.91,7.83,7.83,0,0,0-.15,1c0,.32,0,.62,0,.91s0,.59,0,.92a7.67,7.67,0,0,0,.15,1,4.72,4.72,0,0,0,.3.92,3.2,3.2,0,0,0,.48.78,2.39,2.39,0,0,0,.71.54,2.19,2.19,0,0,0,1,.2,1.94,1.94,0,0,0,.91-.21,2.34,2.34,0,0,0,.69-.57,3.09,3.09,0,0,0,.5-.8,6,6,0,0,0,.34-.92,8.1,8.1,0,0,0,.18-1A6.79,6.79,0,0,0,423.94,138.58Z" transform="translate(-57.36 -20.84)" style="fill:#222524"/><path d="M448.26,144.24H445v-10H442.9V133H445v-4.15h3.31V133h3.42v1.31h-3.42Z" transform="translate(-57.36 -20.84)" style="fill:#222524"/><path d="M470.68,130.24a1.82,1.82,0,0,1-.14.7,1.8,1.8,0,0,1-.39.58,1.73,1.73,0,0,1-.57.38,1.71,1.71,0,0,1-.71.15,1.62,1.62,0,0,1-.69-.15,1.88,1.88,0,0,1-.58-.38,1.77,1.77,0,0,1-.38-.58,1.82,1.82,0,0,1,0-1.4,1.73,1.73,0,0,1,.38-.57,2.11,2.11,0,0,1,.58-.39,1.77,1.77,0,0,1,.69-.14,1.87,1.87,0,0,1,.71.14,1.92,1.92,0,0,1,.57.39,1.75,1.75,0,0,1,.39.57A1.82,1.82,0,0,1,470.68,130.24Zm-.15,14h-3.31V133h3.31Z" transform="translate(-57.36 -20.84)" style="fill:#222524"/><path d="M499.21,138.58a5.82,5.82,0,0,1-.23,1.65,6.39,6.39,0,0,1-.65,1.43,5.85,5.85,0,0,1-1,1.17,6,6,0,0,1-1.29.89,6.62,6.62,0,0,1-1.49.55,6.88,6.88,0,0,1-1.64.2,7,7,0,0,1-3.12-.75,6.24,6.24,0,0,1-1.28-.89,5.54,5.54,0,0,1-1-1.17,5.77,5.77,0,0,1,0-6.16,5.54,5.54,0,0,1,1-1.17,6.24,6.24,0,0,1,1.28-.89,7,7,0,0,1,3.12-.75,6.88,6.88,0,0,1,1.64.2,6.62,6.62,0,0,1,1.49.55,6,6,0,0,1,1.29.89,5.85,5.85,0,0,1,1,1.17,6.39,6.39,0,0,1,.65,1.43A5.93,5.93,0,0,1,499.21,138.58Zm-3.36,0c0-.31,0-.64-.05-1a8.87,8.87,0,0,0-.18-1,5.52,5.52,0,0,0-.35-1,3.37,3.37,0,0,0-.54-.81,2.39,2.39,0,0,0-.77-.56,2.46,2.46,0,0,0-1-.21,2.29,2.29,0,0,0-1,.21,2.6,2.6,0,0,0-.77.58,3.18,3.18,0,0,0-.55.82,6.6,6.6,0,0,0-.35,1,7.35,7.35,0,0,0-.2,1,7.71,7.71,0,0,0,0,1.92,7.35,7.35,0,0,0,.2,1,6.21,6.21,0,0,0,.35,1,3.18,3.18,0,0,0,.55.82,2.6,2.6,0,0,0,.77.58,2.29,2.29,0,0,0,1,.21,2.36,2.36,0,0,0,1.81-.77,3.5,3.5,0,0,0,.55-.81,5.3,5.3,0,0,0,.34-1,7.31,7.31,0,0,0,.19-1C495.83,139.22,495.85,138.89,495.85,138.58Z" transform="translate(-57.36 -20.84)" style="fill:#222524"/><path d="M526.83,137.78a11.24,11.24,0,0,1-.28,2.38,15,15,0,0,1-.78,2.43,13.29,13.29,0,0,1-1.19,2.24,9.85,9.85,0,0,1-1.52,1.82l-1.24-.68a9.32,9.32,0,0,0,.49-1.09,13,13,0,0,0,.43-1.29c.13-.45.24-.92.34-1.4s.19-1,.25-1.43.12-.93.16-1.37,0-.87,0-1.25,0-.53,0-.82a5.08,5.08,0,0,0-.12-.86,4.78,4.78,0,0,0-.25-.84,2.31,2.31,0,0,0-.41-.7,1.91,1.91,0,0,0-1.49-.68,1.75,1.75,0,0,0-.87.22,2.46,2.46,0,0,0-.67.58,3.71,3.71,0,0,0-.51.81,6.74,6.74,0,0,0-.34,1,7.19,7.19,0,0,0-.25,1.79v5.65h-3.31V133h1.27l1.52,2.63a5.34,5.34,0,0,1,.68-1.19,4.5,4.5,0,0,1,.93-.92,3.83,3.83,0,0,1,1.14-.58,4.32,4.32,0,0,1,1.37-.21,5.12,5.12,0,0,1,2,.38,4,4,0,0,1,1.44,1.06,4.38,4.38,0,0,1,.86,1.61A6.93,6.93,0,0,1,526.83,137.78Z" transform="translate(-57.36 -20.84)" style="fill:#222524"/></svg>