<svg id="f6ea7bf4-7f28-4f75-8095-35becf4f5012" data-name="Calque 1" xmlns="http://www.w3.org/2000/svg" width="112.8mm" height="95.29mm" viewBox="0 0 319.74 270.13"><path d="M137.77,749.61s3.45-9.11.29-57.09a36.74,36.74,0,0,1,0-5.93c.57-7.51,4.57-25.26,18.56-35.41,22.43-16.29,43.87-10.42,43.87-10.42a56.93,56.93,0,0,1,34,26.16,63.67,63.67,0,0,1,8.16,41.42s-3.43,35.18-33.11,65.76L197.94,767s11.8-23.75,14.2-49.6c1.45-15.51,3.4-38-4.07-52.9-8.44-16.83-25.52-12.48-33.48-4-6.46,6.92-9.15,11.52-12,24.67s1.67,25.1,8.47,27.21,14.58-3.13,20.86-3.32c6.05-.19,12.2,3.56,10.43,10.73-1.91,7.76-8.7,3.78-11,2.87-3.32-1.28-8.89-3-16,4.09a44.17,44.17,0,0,0-9,12.14,19.05,19.05,0,0,1-3.17,4.85,21.83,21.83,0,0,1-11.56,6.59C141,752.68,137.77,749.61,137.77,749.61Z" transform="translate(-137.77 -541.27)" style="fill:#222524"/><path d="M264.35,763.25c-16.25,0-19.86.48-40.71,16.6S188,788.47,188,788.47s10.45,10.87,26.31,7.86,19.28-7.31,30.63-12.14c9.39-4,18.62-6,25.76-4.19,6.41,1.66,13.15,10,7.8,16.12-6.34,7.29-15.82-1.69-15.82-1.69,2.16,10.24,6,12.52,10.62,14.87,7.75,3.91,18.9,3.38,31.87-10.55,13.21-14.2,15.49-16.84,23-18.3,9.68-1.87,21,4,18.88,13-2.63,11.16-14.51,5.14-14.51,5.14a12.86,12.86,0,0,0,4.1,9.24,11.51,11.51,0,0,0,9.84,2.87c6.33-.78,8.64-3.87,16.64-5.86,8.67-2.15,16-1.11,25.32-3.3s17.41-9,17.41-9c-5.24,1-29.82,6.86-47.18-10.5-11.22-12.69-17.66-18.34-30.14-18.8l-10.1-75.19h3.95a5.69,5.69,0,0,0,5.69-5.69v-9.31a5.69,5.69,0,0,0-5.69-5.69H315.6L313,648c0-5-5.4-9.22-12.71-10.42v-6c0-1.47-1.94-2.67-4.33-2.67s-4.34,1.2-4.34,2.67v6c-7.2,1.24-12.5,5.42-12.5,10.38l-2.49,19.42h-7.05a5.69,5.69,0,0,0-5.69,5.69v9.31a5.69,5.69,0,0,0,5.69,5.69H274l-9.63,75.19m19.77-113a2.27,2.27,0,0,1,2.26-2.27h4.91a.32.32,0,0,1,.32.33v18.77a.32.32,0,0,1-.32.32h-6.84a.32.32,0,0,1-.33-.32Z" transform="translate(-137.77 -541.27)" style="fill:#222524"/><path d="M207.9,601.62s10.51,10.88,27.81,6.27c20.57-5.47,28.82-4.3,34.6,3.36a18.62,18.62,0,0,1-2.82,24.63C257.66,645.08,219.9,640.47,207.9,601.62Z" transform="translate(-137.77 -541.27)" style="fill:#222524"/><path d="M293.08,541.27s9.52,7.73,7.25,19.21c-1.89,9.54.61,10.26,6.85,16.69,6.56,6.75,6.16,18.28.1,24.45-7.47,7.62-23,4.06-27.81-1.51-4.36-5.09-9.94-16.67,1.62-36.56C289.5,549.06,292.37,546.68,293.08,541.27Z" transform="translate(-137.77 -541.27)" style="fill:#222524"/><path d="M380.07,598.51s-18.39,13.59-41.61,9.37c-21.36-3.89-24.26,9.94-24.78,14.22-.38,3.18-2.42,17.74,17.43,21.11C350,646.41,370.94,623.53,380.07,598.51Z" transform="translate(-137.77 -541.27)" style="fill:#222524"/><path d="M371,652.91s-17.91,21.36-23.25,51.68,7.4,53.56,20,63.21,36.25,18.34,63.21,2.07c21.67-13.08,28.74-33,26-47.71-1.78-9.58-9.48-17.75-24.8-23.6,0,0,21.53-6.37,21.18-25.67s-26-23.42-33.59-23.25-26.69,1.9-41.68-7.06c0,0-2.88,22,24.05,17.91,14.88-2.24,19.27,8.7,19.72,13.1a23.67,23.67,0,0,1-1.46,10.85c-1.48,3.24-5.55,7.57-9,9.65-3.26,1.95-7.05,4.84-18.11.51-6.11-2.39-9.65,8.95-3.62,13.43s18.09-.17,18.09-.17,13.43-8.27,18.25,8.09-5.34,40.85-16,47.3-29.11,4.72-33.07-20.77,1.72-57.53,7.92-77Z" transform="translate(-137.77 -541.27)" style="fill:#222524"/></svg>