<svg width="497" height="129" viewBox="0 0 497 129" fill="none" xmlns="http://www.w3.org/2000/svg">
<g clip-path="url(#clip0_316_2811)">
<path d="M80.7862 99.4777H49.7051V56.2145H61.6388V93.9711H80.7862V99.4777Z" fill="#222524"/>
<path d="M98.3432 99.4777H86.4094V56.2145H98.3432V75.1133H114.156V56.2145H126.1V99.4777H114.156V80.6096H98.3432V99.4777Z" fill="#222524"/>
<path d="M169.566 99.4777H159.407V95.3759C158.29 96.9417 156.793 98.1979 155.057 99.0265C153.31 99.8295 151.407 100.236 149.485 100.216C147.044 100.257 144.622 99.7747 142.384 98.8009C140.366 97.909 138.564 96.5941 137.1 94.9452C135.626 93.2662 134.503 91.3105 133.795 89.1925C132.263 84.5892 132.263 79.614 133.795 75.0107C134.506 72.8721 135.64 70.8983 137.13 69.2068C138.594 67.5542 140.396 66.2357 142.415 65.3409C144.633 64.3853 147.028 63.9066 149.444 63.936C150.743 63.9275 152.036 64.1284 153.271 64.5308C155.694 65.3068 157.812 66.8241 159.325 68.8684C160.107 69.9127 160.723 71.0714 161.152 72.3036L165.656 64.7666H169.566V99.4777ZM159.305 82.0452C159.305 81.1428 159.253 80.1994 159.171 79.1945C159.081 78.1938 158.923 77.2003 158.699 76.2207C158.488 75.2564 158.182 74.3153 157.786 73.411C157.413 72.5459 156.904 71.7461 156.278 71.0423C155.668 70.3445 154.915 69.7851 154.072 69.4016C153.126 68.9828 152.099 68.7763 151.065 68.7966C150.093 68.7655 149.127 68.954 148.239 69.3482C147.351 69.7424 146.563 70.332 145.934 71.0731C145.318 71.784 144.816 72.5866 144.447 73.4521C144.052 74.364 143.746 75.3117 143.533 76.2823C143.311 77.2552 143.153 78.2418 143.061 79.2355C142.969 80.261 142.928 81.1633 142.928 82.0452C142.928 82.9271 142.928 83.8705 143.061 84.8754C143.153 85.876 143.31 86.8695 143.533 87.8492C143.748 88.816 144.053 89.7602 144.447 90.6692C144.813 91.539 145.316 92.3454 145.934 93.0584C146.539 93.7475 147.275 94.3088 148.1 94.7094C149.032 95.1384 150.049 95.3489 151.075 95.3246C152.041 95.343 152.997 95.121 153.856 94.6786C154.67 94.244 155.394 93.6595 155.99 92.9559C156.618 92.211 157.14 91.3828 157.54 90.4948C157.959 89.5707 158.302 88.6138 158.566 87.6339C158.817 86.6729 159.006 85.6967 159.13 84.7114C159.258 83.828 159.329 82.9375 159.346 82.0452H159.305Z" fill="#222524"/>
<path d="M265.128 99.4777H228.845V93.9506L251.481 61.7416H228.906V56.2145H265.19V61.7416L242.554 93.9506H265.19L265.128 99.4777Z" fill="#222524"/>
<path d="M365.657 67.8429L359.952 77.2975C359.706 76.4976 359.398 75.5952 359.018 74.6006C358.648 73.6161 358.173 72.6742 357.602 71.7909C357.052 70.9448 356.357 70.202 355.55 69.5964C354.772 69.0055 353.817 68.6947 352.841 68.7146C351.968 68.6926 351.111 68.9435 350.388 69.4324C349.683 69.9334 349.086 70.5717 348.634 71.3089C348.141 72.1283 347.755 73.007 347.484 73.9238C347.175 74.8864 346.935 75.8699 346.766 76.8668C346.599 77.8101 346.483 78.7617 346.417 79.7175C346.356 80.6301 346.325 81.4197 346.325 82.076V99.5084H336.136V64.7666H340.045L344.15 72.8471C344.687 71.5968 345.332 70.3959 346.079 69.258C346.768 68.1987 347.608 67.2453 348.572 66.4278C349.525 65.633 350.608 65.0086 351.774 64.582C353.072 64.1255 354.441 63.9033 355.817 63.9258C356.692 63.931 357.566 63.9961 358.433 64.1206C359.393 64.2456 360.338 64.4654 361.255 64.7769C362.153 65.0791 363.011 65.4888 363.81 65.9971C364.562 66.4587 365.195 67.0911 365.657 67.8429Z" fill="#222524"/>
<path d="M402.392 76.1592C402.416 77.4602 402.182 78.7532 401.704 79.9636C401.261 81.0432 400.624 82.0334 399.827 82.8861C399.026 83.7349 398.098 84.4544 397.077 85.019C396.015 85.607 394.898 86.088 393.742 86.4546C392.55 86.8265 391.328 87.0908 390.089 87.2442C388.878 87.4051 387.658 87.4873 386.436 87.4903C384.946 87.4879 383.458 87.3817 381.982 87.1724C380.513 86.9526 379.064 86.6096 377.652 86.147C377.857 87.4348 378.201 88.6966 378.678 89.9103C379.134 91.0395 379.783 92.0805 380.597 92.9866C381.422 93.898 382.434 94.6218 383.563 95.1093C384.882 95.656 386.301 95.9214 387.729 95.8886C389.767 95.8926 391.754 95.2499 393.403 94.0531C394.205 93.4738 394.92 92.7832 395.527 92.0022C396.153 91.2019 396.664 90.3183 397.046 89.3771L401.438 90.9973C400.809 92.5321 399.881 93.9264 398.708 95.099C397.564 96.2479 396.249 97.213 394.809 97.96C393.342 98.7169 391.783 99.2789 390.171 99.6315C388.577 99.9875 386.95 100.17 385.317 100.175C382.81 100.197 380.32 99.7446 377.981 98.8419C375.812 98.0061 373.838 96.7325 372.184 95.1005C370.53 93.4685 369.23 91.5131 368.366 89.3566C366.519 84.6642 366.519 79.4468 368.366 74.7544C369.232 72.6004 370.533 70.6476 372.187 69.0175C373.841 67.3875 375.813 66.115 377.981 65.2793C380.319 64.3718 382.809 63.9193 385.317 63.9463C386.635 63.9503 387.951 64.0394 389.258 64.2129C390.582 64.3931 391.89 64.6812 393.167 65.0743C394.407 65.4497 395.604 65.955 396.738 66.5816C397.837 67.1744 398.829 67.9474 399.673 68.8684C400.518 69.7974 401.188 70.8707 401.653 72.037C402.167 73.3495 402.418 74.7501 402.392 76.1592ZM377.355 83.0091C378.596 83.286 379.838 83.5116 381.079 83.6757C382.325 83.8315 383.58 83.9102 384.835 83.9115C386.073 83.9224 387.309 83.7951 388.519 83.5321C389.577 83.3193 390.58 82.8899 391.464 82.2708C392.31 81.6638 392.987 80.8523 393.434 79.9123C393.955 78.7642 394.204 77.5115 394.162 76.2515C394.171 75.1379 394.002 74.0301 393.66 72.9701C393.362 72.0353 392.873 71.1727 392.223 70.4373C391.577 69.7522 390.789 69.2167 389.914 68.8684C388.894 68.4606 387.802 68.2619 386.703 68.2839C385.643 68.2659 384.593 68.4793 383.624 68.9094C382.721 69.3218 381.904 69.8991 381.213 70.6116C380.506 71.3466 379.909 72.1788 379.438 73.0829C378.965 74.0361 378.574 75.0274 378.268 76.0464C377.953 77.0513 377.719 78.0801 377.57 79.1227C377.44 80.0985 377.371 81.0814 377.365 82.0657V82.5477C377.352 82.7012 377.349 82.8553 377.355 83.0091Z" fill="#222524"/>
<path d="M419.405 56.3888C419.408 57.1194 419.266 57.8434 418.987 58.5189C418.709 59.1944 418.299 59.8082 417.782 60.3248C417.265 60.8415 416.651 61.2508 415.975 61.5291C415.299 61.8075 414.575 61.9494 413.844 61.9467C413.107 61.9515 412.377 61.8049 411.699 61.516C410.696 61.0842 409.841 60.3689 409.239 59.4579C408.638 58.547 408.316 57.4802 408.313 56.3888C408.315 55.664 408.461 54.9468 408.741 54.2782C409.02 53.6096 409.43 53.0027 409.944 52.4921C410.446 51.9852 411.042 51.5812 411.699 51.3026C412.374 51.0056 413.105 50.8553 413.844 50.8617C414.588 50.8552 415.326 51.0054 416.009 51.3026C416.67 51.5692 417.274 51.9629 417.784 52.4614C418.3 52.9704 418.709 53.5772 418.988 54.2463C419.266 54.9155 419.408 55.6334 419.405 56.358V56.3888ZM418.964 99.4571H408.764V64.7666H418.964V99.4571Z" fill="#222524"/>
<path d="M454.97 99.4776H425.572V95.4477L443.765 68.7863H425.572V64.7666H454.97V68.7863L436.787 95.4477H454.97V99.4776Z" fill="#222524"/>
<path d="M497 79.5842C496.984 82.0519 496.699 84.5104 496.148 86.916C495.568 89.4719 494.768 91.973 493.757 94.3915C492.753 96.8024 491.523 99.1131 490.084 101.293C488.755 103.334 487.18 105.204 485.395 106.861L481.577 104.81C482.161 103.724 482.672 102.6 483.106 101.446C483.589 100.206 484.03 98.8829 484.42 97.4986C484.81 96.1142 485.159 94.6684 485.446 93.1815C485.733 91.6946 486.02 90.2385 486.236 88.7823C486.451 87.3262 486.605 85.9214 486.718 84.5473C486.831 83.1732 486.882 81.9017 486.882 80.7224C486.882 79.9328 486.882 79.1022 486.79 78.2101C486.729 77.3099 486.602 76.4154 486.41 75.5337C486.229 74.6596 485.975 73.8021 485.651 72.9701C485.348 72.1823 484.914 71.4509 484.369 70.8064C483.835 70.1781 483.178 69.6652 482.439 69.299C481.611 68.9033 480.7 68.71 479.782 68.7351C478.846 68.7215 477.923 68.9512 477.104 69.4016C476.32 69.8673 475.625 70.4679 475.051 71.1756C474.432 71.9448 473.911 72.7889 473.502 73.6879C473.08 74.625 472.736 75.5957 472.476 76.5899C471.988 78.3858 471.73 80.2359 471.706 82.0965V99.5289H461.517V52.0102H471.645V69.8938C472.866 68.061 474.514 66.5515 476.447 65.4947C478.377 64.4509 480.542 63.9179 482.737 63.9463C484.912 63.8859 487.075 64.2806 489.089 65.105C490.801 65.8358 492.322 66.9517 493.532 68.3659C494.743 69.819 495.644 71.5045 496.179 73.3188C496.762 75.355 497.039 77.4666 497 79.5842Z" fill="#222524"/>
<path d="M188.436 96.1963C181.387 96.1963 179.827 96.4116 170.787 103.374C161.747 110.337 155.313 107.107 155.313 107.107C156.815 108.525 158.629 109.571 160.608 110.162C162.588 110.754 164.679 110.873 166.713 110.511C173.629 109.199 175.076 107.343 180.001 105.251C184.106 103.528 188.077 102.636 191.176 103.436C193.957 104.154 196.881 107.753 194.552 110.429C191.802 113.588 187.697 109.691 187.697 109.691C188.631 114.131 190.293 115.116 192.305 116.131C195.66 117.833 200.514 117.597 206.116 111.557C211.719 105.517 212.837 104.266 216.09 103.631C220.287 102.821 225.202 105.374 224.299 109.271C223.16 114.111 218.009 111.496 218.009 111.496C218.02 112.249 218.182 112.992 218.487 113.681C218.792 114.37 219.233 114.991 219.784 115.505C220.351 116.028 221.032 116.412 221.772 116.627C222.513 116.843 223.294 116.883 224.053 116.746C226.792 116.408 227.798 115.064 231.236 114.203C234.991 113.27 238.193 113.731 242.215 112.778C244.971 112.001 247.541 110.671 249.767 108.871C247.499 109.291 236.838 111.855 229.306 104.328C224.443 98.8214 221.652 96.3808 216.234 96.1758L211.852 63.5976H213.566C214.222 63.5976 214.851 63.3373 215.314 62.8738C215.778 62.4103 216.039 61.7817 216.039 61.1263V57.1169C216.039 56.4614 215.778 55.8328 215.314 55.3694C214.851 54.9059 214.222 54.6456 213.566 54.6456H210.652L209.523 46.237C209.523 44.0631 207.173 42.2378 204.013 41.7148V39.1307C204.013 38.4949 203.171 37.972 202.125 37.972C201.078 37.972 200.247 38.4949 200.247 39.1307V41.7456C197.168 42.2788 194.829 44.0938 194.829 46.2472L193.751 54.6558H190.673C190.017 54.6558 189.388 54.9162 188.924 55.3796C188.461 55.8431 188.2 56.4717 188.2 57.1271V61.1571C188.2 61.8125 188.461 62.4411 188.924 62.9046C189.388 63.368 190.017 63.6284 190.673 63.6284H192.541L188.436 96.1963ZM197.015 47.2111C197.027 46.9568 197.134 46.7162 197.314 46.5361C197.494 46.356 197.735 46.2494 197.989 46.237H200.113C200.152 46.237 200.188 46.2521 200.215 46.279C200.242 46.306 200.257 46.3425 200.257 46.3805V54.5123C200.257 54.5307 200.253 54.5489 200.246 54.5657C200.239 54.5826 200.228 54.5978 200.214 54.6103C200.201 54.6229 200.185 54.6325 200.168 54.6385C200.15 54.6446 200.132 54.647 200.113 54.6456H197.148C197.113 54.6456 197.079 54.6315 197.054 54.6065C197.029 54.5815 197.015 54.5476 197.015 54.5123V47.2111Z" fill="#222524"/>
<path d="M163.902 26.1589C165.513 27.6044 167.469 28.6132 169.581 29.0889C171.693 29.5646 173.893 29.4914 175.969 28.8763C184.886 26.4973 188.467 27.01 190.971 30.3222C192.114 31.941 192.621 33.9236 192.396 35.8922C192.171 37.8608 191.229 39.6777 189.75 40.997C185.481 44.9859 169.114 42.9966 163.902 26.1589Z" fill="#222524"/>
<path d="M200.842 3.05176e-05C200.842 3.05176e-05 204.946 3.35321 203.992 8.32658C203.171 12.4283 204.249 12.7667 206.958 15.5046C208.276 16.9558 209.007 18.8458 209.007 20.8061C209.007 22.7665 208.276 24.6565 206.958 26.1077C203.725 29.3993 196.973 27.8612 194.901 25.4514C193.013 23.2467 190.591 18.222 195.598 9.60837C199.292 3.37372 200.534 2.34828 200.842 3.05176e-05Z" fill="#222524"/>
<path d="M238.562 24.7746C238.562 24.7746 230.589 30.6708 220.523 28.8763C211.288 27.1946 210.005 33.1831 209.78 35.0289C209.615 36.4133 208.753 42.7197 217.332 44.1758C225.51 45.5602 234.612 35.6442 238.562 24.7746Z" fill="#222524"/>
<path d="M0 98.483C0 98.483 1.44682 94.6478 0.123133 74.5185C0.0565449 73.6892 0.0565449 72.856 0.123133 72.0267C0.35914 68.8786 2.04197 61.4237 7.91136 57.1681C17.3311 50.3285 26.3815 52.7895 26.3815 52.7895C32.3935 54.4364 37.5231 58.3666 40.6753 63.7412C43.7784 68.9895 44.988 75.1421 44.1025 81.1736C42.4435 91.5957 37.5681 101.24 30.1576 108.758L25.2835 105.784C28.3829 99.2127 30.3962 92.1828 31.2453 84.9677C31.8507 78.4562 32.6716 69.0222 29.5317 62.767C25.9916 55.7017 18.819 57.527 15.4739 61.1058C12.7649 64.0078 11.6259 65.9356 10.4253 71.4627C9.22479 76.9898 11.1231 81.994 13.9757 82.8758C16.8283 83.7577 20.1324 81.5633 22.7388 81.4812C25.3451 81.3992 27.8694 82.9784 27.1203 85.9932C26.3199 89.2438 23.4673 87.5723 22.4925 87.1929C21.097 86.6597 18.7574 85.9316 15.7612 88.9054C14.2176 90.3878 12.9372 92.1216 11.9748 94.0326C11.6399 94.7815 11.1898 95.4735 10.6408 96.0835C9.34796 97.4851 7.65246 98.4523 5.7873 98.8521C1.35447 99.7648 0 98.483 0 98.483Z" fill="#222524"/>
<path d="M294.403 47.9494C289.601 54.1678 286.341 61.4351 284.891 69.1555C282.695 81.6043 287.97 91.1408 293.1 95.099C298.231 99.0572 307.989 102.626 319.061 95.9501C327.957 90.5769 330.861 82.4144 329.743 76.3643C329.014 72.4369 325.854 69.0837 319.554 66.6842C319.554 66.6842 328.399 64.0693 328.255 56.1529C328.111 48.2366 317.573 46.5343 314.464 46.6061C311.355 46.6779 303.495 47.3854 297.348 43.7144C297.348 43.7144 296.168 52.728 307.22 51.0668C313.376 50.1439 315.131 54.6353 315.326 56.4401C315.472 57.9504 315.265 59.4739 314.721 60.8905C313.845 62.5081 312.565 63.8717 311.006 64.8486C309.672 65.6485 308.112 66.838 303.567 65.064C301.063 64.0385 299.606 68.735 302.089 70.5706C304.572 72.4061 309.508 70.4988 309.508 70.4988C309.508 70.4988 315.028 67.1046 317.009 73.8212C318.989 80.5378 314.813 90.5871 310.431 93.2327C306.05 95.8784 298.477 95.1708 296.846 84.7113C295.214 74.2519 297.554 61.1263 300.109 53.1176L294.403 47.9494Z" fill="#222524"/>
<path d="M296.589 126.539H286.235V112.121H290.207V124.714H296.589V126.539Z" fill="#222524"/>
<path d="M324.356 120.735C324.359 121.307 324.279 121.877 324.12 122.427C323.959 122.941 323.735 123.434 323.453 123.893C323.165 124.337 322.82 124.74 322.427 125.093C322.025 125.451 321.58 125.758 321.103 126.006C320.618 126.254 320.105 126.444 319.574 126.57C319.023 126.705 318.458 126.774 317.891 126.775C316.779 126.77 315.683 126.506 314.69 126.006C314.216 125.758 313.774 125.451 313.376 125.093C312.98 124.743 312.635 124.339 312.35 123.893C311.753 122.948 311.436 121.853 311.436 120.735C311.436 119.617 311.753 118.522 312.35 117.577C312.635 117.131 312.98 116.727 313.376 116.377C313.774 116.019 314.216 115.712 314.69 115.464C315.683 114.964 316.779 114.7 317.891 114.695C318.458 114.696 319.023 114.765 319.574 114.9C320.105 115.026 320.618 115.216 321.103 115.464C321.58 115.712 322.025 116.019 322.427 116.377C322.82 116.73 323.165 117.133 323.453 117.577C323.735 118.036 323.959 118.529 324.12 119.043C324.278 119.593 324.357 120.163 324.356 120.735ZM320.908 120.735C320.908 120.417 320.908 120.079 320.857 119.71C320.815 119.364 320.753 119.022 320.672 118.684C320.585 118.332 320.465 117.988 320.313 117.659C320.169 117.356 319.983 117.077 319.759 116.828C319.537 116.586 319.268 116.39 318.969 116.254C318.645 116.111 318.296 116.038 317.943 116.038C317.589 116.031 317.238 116.105 316.916 116.254C316.618 116.401 316.35 116.603 316.126 116.849C315.896 117.098 315.705 117.381 315.562 117.689C315.415 118.021 315.295 118.364 315.203 118.715C315.106 119.05 315.037 119.393 314.998 119.74C314.916 120.394 314.916 121.055 314.998 121.709C315.037 122.056 315.106 122.399 315.203 122.735C315.293 123.086 315.413 123.429 315.562 123.76C315.705 124.068 315.896 124.352 316.126 124.601C316.35 124.847 316.618 125.048 316.916 125.196C317.238 125.345 317.589 125.418 317.943 125.411C318.296 125.412 318.646 125.339 318.969 125.196C319.266 125.056 319.534 124.861 319.759 124.621C319.985 124.375 320.172 124.094 320.313 123.791C320.466 123.462 320.587 123.118 320.672 122.765C320.761 122.428 320.826 122.086 320.867 121.74C320.888 121.391 320.908 121.053 320.908 120.735Z" fill="#222524"/>
<path d="M351.589 117.843L350.122 118.417C349.931 117.739 349.519 117.144 348.952 116.726C348.374 116.326 347.684 116.121 346.982 116.141C346.603 116.132 346.226 116.198 345.873 116.336C345.558 116.457 345.268 116.638 345.022 116.869C344.775 117.099 344.564 117.366 344.396 117.659C344.226 117.965 344.088 118.288 343.985 118.623C343.876 118.957 343.797 119.3 343.749 119.648C343.71 119.988 343.69 120.331 343.688 120.673C343.684 121.043 343.702 121.413 343.739 121.781C343.779 122.145 343.848 122.505 343.944 122.858C344.039 123.192 344.169 123.515 344.334 123.822C344.492 124.113 344.696 124.376 344.94 124.601C345.198 124.824 345.493 125.001 345.812 125.124C346.188 125.253 346.584 125.315 346.982 125.308C347.331 125.314 347.678 125.258 348.008 125.144C348.323 125.043 348.62 124.895 348.89 124.703C349.159 124.503 349.401 124.269 349.609 124.006C349.816 123.735 349.982 123.434 350.101 123.114L351.568 123.657C351.364 124.162 351.068 124.624 350.696 125.021C350.337 125.405 349.918 125.727 349.455 125.975C348.99 126.227 348.493 126.414 347.977 126.529C347.449 126.651 346.908 126.713 346.366 126.713C345.534 126.719 344.709 126.566 343.934 126.262C343.208 125.983 342.548 125.557 341.995 125.011C341.443 124.468 341.006 123.819 340.712 123.104C340.406 122.33 340.253 121.505 340.261 120.673C340.247 119.838 340.4 119.008 340.712 118.233C340.998 117.514 341.431 116.862 341.982 116.319C342.533 115.775 343.191 115.351 343.914 115.075C344.696 114.773 345.528 114.624 346.366 114.634C346.919 114.632 347.469 114.694 348.008 114.818C348.529 114.937 349.03 115.13 349.496 115.392C349.957 115.651 350.376 115.98 350.737 116.367C351.114 116.8 351.403 117.301 351.589 117.843Z" fill="#222524"/>
<path d="M379.561 126.539H376.216V125.165C375.846 125.686 375.348 126.103 374.769 126.375C374.187 126.645 373.553 126.781 372.912 126.775C372.097 126.785 371.29 126.624 370.541 126.303C369.87 125.999 369.269 125.559 368.776 125.011C368.29 124.448 367.918 123.797 367.678 123.093C367.419 122.335 367.29 121.537 367.299 120.735C367.291 119.93 367.42 119.129 367.678 118.366C367.922 117.665 368.295 117.014 368.776 116.449C369.269 115.903 369.87 115.467 370.541 115.167C371.288 114.841 372.097 114.68 372.912 114.695C373.344 114.695 373.774 114.764 374.184 114.9C374.584 115.028 374.962 115.218 375.302 115.464C375.642 115.713 375.943 116.01 376.195 116.346C376.453 116.697 376.657 117.084 376.801 117.495L378.268 115.013H379.571L379.561 126.539ZM376.154 120.735C376.154 120.438 376.154 120.12 376.154 119.781C376.125 119.436 376.074 119.094 376 118.756C375.921 118.434 375.818 118.119 375.692 117.812C375.562 117.54 375.392 117.288 375.19 117.064C374.982 116.835 374.731 116.65 374.451 116.52C374.129 116.376 373.778 116.305 373.425 116.315C373.071 116.302 372.72 116.372 372.399 116.52C372.123 116.658 371.876 116.846 371.67 117.074C371.466 117.314 371.3 117.584 371.177 117.874C371.044 118.174 370.941 118.487 370.87 118.807C370.796 119.145 370.745 119.488 370.716 119.833C370.716 120.161 370.716 120.468 370.716 120.766C370.716 121.063 370.716 121.371 370.716 121.709C370.744 122.054 370.796 122.397 370.87 122.735C370.94 123.059 371.043 123.375 371.177 123.678C371.302 123.967 371.468 124.236 371.67 124.478C371.876 124.706 372.123 124.894 372.399 125.032C372.72 125.18 373.071 125.25 373.425 125.237C373.749 125.242 374.069 125.168 374.358 125.021C374.63 124.874 374.87 124.675 375.066 124.437C375.278 124.191 375.452 123.915 375.579 123.616C375.721 123.312 375.838 122.996 375.928 122.673C376.011 122.335 376.073 121.993 376.113 121.648C376.147 121.345 376.16 121.04 376.154 120.735Z" fill="#222524"/>
<path d="M401.109 126.539H397.764V116.285H395.609V115.013H397.764V110.757H401.161V115.013H404.67V116.356H401.161L401.109 126.539Z" fill="#222524"/>
<path d="M424.115 112.183C424.115 112.429 424.066 112.673 423.971 112.901C423.878 113.123 423.742 113.325 423.571 113.495C423.404 113.663 423.205 113.795 422.986 113.885C422.757 113.988 422.509 114.04 422.258 114.039C422.013 114.04 421.771 113.988 421.55 113.885C421.329 113.793 421.127 113.661 420.954 113.495C420.787 113.325 420.654 113.123 420.565 112.901C420.47 112.673 420.421 112.429 420.421 112.183C420.421 111.936 420.47 111.692 420.565 111.465C420.654 111.246 420.787 111.047 420.954 110.881C421.129 110.715 421.33 110.58 421.55 110.481C421.774 110.386 422.014 110.337 422.258 110.337C422.508 110.337 422.755 110.386 422.986 110.481C423.204 110.577 423.402 110.713 423.571 110.881C423.742 111.047 423.878 111.246 423.971 111.465C424.066 111.692 424.115 111.936 424.115 112.183ZM423.961 126.539H420.565V115.013H423.961V126.539Z" fill="#222524"/>
<path d="M453.39 120.735C453.393 121.307 453.314 121.877 453.154 122.427C452.993 122.941 452.769 123.434 452.487 123.893C452.199 124.337 451.854 124.74 451.461 125.093C451.062 125.454 450.617 125.761 450.137 126.006C449.652 126.254 449.139 126.444 448.608 126.57C448.058 126.705 447.493 126.774 446.926 126.775C445.813 126.77 444.717 126.506 443.724 126.006C443.25 125.758 442.809 125.451 442.411 125.093C442.014 124.743 441.669 124.339 441.385 123.893C440.787 122.948 440.47 121.853 440.47 120.735C440.47 119.617 440.787 118.522 441.385 117.577C441.669 117.131 442.014 116.727 442.411 116.377C442.809 116.019 443.25 115.712 443.724 115.464C444.717 114.964 445.813 114.7 446.926 114.695C447.493 114.696 448.058 114.765 448.608 114.9C449.139 115.026 449.652 115.216 450.137 115.464C450.617 115.709 451.062 116.016 451.461 116.377C451.854 116.73 452.199 117.133 452.487 117.577C452.769 118.036 452.993 118.529 453.154 119.043C453.312 119.593 453.391 120.163 453.39 120.735ZM449.942 120.735C449.942 120.417 449.942 120.079 449.891 119.71C449.849 119.364 449.787 119.022 449.706 118.684C449.62 118.332 449.5 117.988 449.347 117.659C449.204 117.356 449.017 117.077 448.793 116.828C448.571 116.586 448.302 116.39 448.003 116.254C447.68 116.111 447.33 116.038 446.977 116.038C446.623 116.032 446.272 116.106 445.951 116.254C445.653 116.401 445.385 116.603 445.161 116.849C444.93 117.098 444.739 117.381 444.596 117.689C444.449 118.021 444.329 118.364 444.237 118.715C444.145 119.052 444.076 119.394 444.032 119.74C443.95 120.394 443.95 121.055 444.032 121.709C444.076 122.055 444.145 122.398 444.237 122.735C444.327 123.086 444.448 123.429 444.596 123.76C444.739 124.068 444.93 124.352 445.161 124.601C445.385 124.847 445.653 125.048 445.951 125.196C446.272 125.344 446.623 125.417 446.977 125.411C447.325 125.421 447.671 125.355 447.992 125.219C448.312 125.083 448.6 124.879 448.834 124.621C449.06 124.372 449.25 124.093 449.399 123.791C449.549 123.461 449.666 123.118 449.747 122.765C449.836 122.428 449.901 122.086 449.942 121.74C449.922 121.391 449.942 121.053 449.942 120.735Z" fill="#222524"/>
<path d="M481.731 119.915C481.723 120.736 481.626 121.554 481.444 122.355C481.248 123.207 480.981 124.041 480.644 124.847C480.311 125.65 479.902 126.419 479.423 127.144C478.98 127.827 478.456 128.453 477.863 129.01L476.59 128.313C476.782 127.951 476.95 127.578 477.093 127.195C477.263 126.762 477.411 126.321 477.534 125.872C477.668 125.411 477.781 124.929 477.883 124.437C477.986 123.945 478.078 123.411 478.14 122.97C478.201 122.529 478.263 122.017 478.304 121.566C478.345 121.114 478.304 120.673 478.304 120.284C478.304 119.894 478.304 119.74 478.304 119.443C478.288 119.146 478.247 118.851 478.181 118.561C478.122 118.267 478.036 117.978 477.924 117.7C477.828 117.437 477.685 117.194 477.504 116.982C477.317 116.76 477.082 116.582 476.818 116.461C476.553 116.341 476.265 116.28 475.975 116.285C475.663 116.281 475.355 116.359 475.082 116.51C474.819 116.665 474.586 116.867 474.395 117.105C474.185 117.358 474.009 117.637 473.871 117.936C473.728 118.268 473.612 118.611 473.522 118.961C473.36 119.56 473.274 120.176 473.266 120.796V126.59H469.869V115.013H471.173L472.732 117.71C472.911 117.275 473.146 116.865 473.43 116.49C473.7 116.13 474.022 115.813 474.384 115.546C474.738 115.284 475.134 115.083 475.554 114.951C476.008 114.805 476.483 114.732 476.96 114.736C477.663 114.727 478.361 114.86 479.012 115.126C479.58 115.372 480.086 115.744 480.49 116.213C480.897 116.695 481.197 117.258 481.372 117.864C481.592 118.526 481.713 119.217 481.731 119.915Z" fill="#222524"/>
</g>
<defs>
<clipPath id="clip0_316_2811">
<rect width="497" height="129" fill="white"/>
</clipPath>
</defs>
</svg>
